<svg width="20" height="20" viewBox="0 0 20 20" fill="none" xmlns="http://www.w3.org/2000/svg">
    <path
        d="M17.2738 2.72656H2.72834C1.72834 2.72656 0.919247 3.54474 0.919247 4.54474L0.910156 15.4538C0.910156 16.4538 1.72834 17.272 2.72834 17.272H17.2738C18.2738 17.272 19.092 16.4538 19.092 15.4538V4.54474C19.092 3.54474 18.2738 2.72656 17.2738 2.72656ZM16.9102 6.5902L10.4829 10.6084C10.192 10.7902 9.81016 10.7902 9.51925 10.6084L3.09197 6.5902C3.00082 6.53903 2.92099 6.46989 2.85733 6.38698C2.79366 6.30406 2.74749 6.20909 2.72159 6.10781C2.69569 6.00653 2.69061 5.90105 2.70666 5.79775C2.72271 5.69445 2.75955 5.59548 2.81496 5.50684C2.87036 5.41819 2.94318 5.3417 3.029 5.28201C3.11482 5.22232 3.21186 5.18066 3.31424 5.15956C3.41663 5.13846 3.52223 5.13835 3.62466 5.15924C3.72709 5.18013 3.82421 5.22159 3.91016 5.28111L10.0011 9.0902L16.092 5.28111C16.1779 5.22159 16.275 5.18013 16.3775 5.15924C16.4799 5.13835 16.5855 5.13846 16.6879 5.15956C16.7903 5.18066 16.8873 5.22232 16.9731 5.28201C17.059 5.3417 17.1318 5.41819 17.1872 5.50684C17.2426 5.59548 17.2794 5.69445 17.2955 5.79775C17.3115 5.90105 17.3064 6.00653 17.2805 6.10781C17.2546 6.20909 17.2085 6.30406 17.1448 6.38698C17.0811 6.46989 17.0013 6.53903 16.9102 6.5902Z"
        fill="white" />
</svg>