<svg width="20" height="20" viewBox="0 0 20 20" fill="none" xmlns="http://www.w3.org/2000/svg">
    <path
        d="M9.78924 5.17821C9.83034 4.9406 10.1697 4.9406 10.2108 5.17821L10.4884 6.78315C10.5214 6.97418 10.7693 7.02715 10.8768 6.86614L11.7797 5.51346C11.9134 5.31319 12.2234 5.45193 12.1648 5.68581L11.769 7.26549C11.7219 7.45352 11.9269 7.60326 12.0903 7.50011L13.4625 6.63358C13.6656 6.50529 13.8927 6.75878 13.7445 6.94848L12.7438 8.22977C12.6247 8.38228 12.7514 8.60289 12.9424 8.57545L14.5465 8.3449C14.784 8.31076 14.8889 8.63518 14.6768 8.7479L13.2442 9.50925C13.0737 9.59987 13.1001 9.85322 13.2857 9.90622L14.8445 10.3515C15.0752 10.4174 15.0398 10.7567 14.8004 10.7729L13.1836 10.8827C12.9911 10.8958 12.9128 11.138 13.0609 11.2623L14.3047 12.3065C14.4889 12.461 14.3192 12.7564 14.094 12.6734L12.5725 12.1126C12.3914 12.0459 12.2219 12.2352 12.3068 12.4093L13.0207 13.8717C13.1264 14.0882 12.8518 14.2887 12.6797 14.1208L11.5167 12.9864C11.3782 12.8513 11.1467 12.955 11.1539 13.1487L11.2143 14.7766C11.2233 15.0176 10.8914 15.0885 10.802 14.8647L10.1985 13.3529C10.1267 13.1729 9.87329 13.1729 9.80146 13.3529L9.19799 14.8647C9.10865 15.0885 8.77674 15.0176 8.78568 14.7766L8.84609 13.1487C8.85328 12.955 8.62178 12.8513 8.48335 12.9864L7.32034 14.1208C7.14815 14.2887 6.87363 14.0882 6.97932 13.8717L7.69317 12.4093C7.77814 12.2352 7.60857 12.0459 7.42747 12.1126L5.90602 12.6734C5.68077 12.7564 5.51111 12.461 5.69526 12.3065L6.93912 11.2623C7.08717 11.138 7.00886 10.8958 6.81641 10.8827L5.19959 10.7729C4.96022 10.7567 4.92475 10.4174 5.15553 10.3515L6.71432 9.90622C6.89986 9.85322 6.92635 9.59987 6.75582 9.50925L5.3232 8.7479C5.1111 8.63518 5.21595 8.31076 5.45346 8.3449L7.05765 8.57545C7.24859 8.60289 7.3753 8.38228 7.25618 8.22977L6.25546 6.94848C6.10731 6.75878 6.33436 6.50529 6.53752 6.63358L7.90973 7.50011C8.07307 7.60326 8.27808 7.45352 8.23097 7.26549L7.83519 5.68581C7.7766 5.45193 8.08659 5.31319 8.22027 5.51346L9.12325 6.86614C9.23073 7.02715 9.4786 6.97418 9.51164 6.78315L9.78924 5.17821Z"
        fill="#19B28D" />
</svg>