<svg width="20" height="20" viewBox="0 0 20 20" fill="none" xmlns="http://www.w3.org/2000/svg">
<path fill-rule="evenodd" clip-rule="evenodd" d="M1.7856 9.84601C6.15878 7.9468 9.07006 6.68483 10.532 6.07258C14.6927 4.33581 15.5674 4.03593 16.1296 4.02344C16.2546 4.02344 16.5295 4.04843 16.7169 4.19836C16.8668 4.32331 16.9043 4.48575 16.9293 4.61069C16.9543 4.73564 16.9793 4.99803 16.9543 5.19795C16.7294 7.57196 15.7548 13.3321 15.255 15.9809C15.0426 17.1055 14.6302 17.4803 14.2304 17.5178C13.3558 17.5928 12.6936 16.943 11.8564 16.3933C10.532 15.5311 9.79476 14.9939 8.5078 14.1442C7.02092 13.1696 7.98302 12.6323 8.83266 11.7577C9.05757 11.5328 12.8935 8.03426 12.9684 7.72189C12.9809 7.68441 12.9809 7.53447 12.8935 7.4595C12.806 7.38453 12.6811 7.40952 12.5811 7.43451C12.4437 7.4595 10.3445 8.85892 6.25873 11.6203C5.65898 12.0326 5.12171 12.2325 4.63441 12.22C4.09714 12.2075 3.07256 11.9201 2.29789 11.6702C1.36078 11.3704 0.611089 11.2079 0.673563 10.6832C0.711047 10.4083 1.08589 10.1334 1.7856 9.84601Z" fill="#0A0620"/>
</svg>
