<svg width="20" height="20" viewBox="0 0 20 20" fill="none" xmlns="http://www.w3.org/2000/svg">
    <path fill-rule="evenodd" clip-rule="evenodd"
        d="M1.23244 9.46938C6.06328 7.35919 9.27924 5.95703 10.8941 5.27678C15.4903 3.34707 16.4565 3.01388 17.0776 3C17.2156 3 17.5193 3.02777 17.7263 3.19436C17.892 3.33319 17.9334 3.51366 17.961 3.65249C17.9886 3.79132 18.0162 4.08286 17.9886 4.30498C17.7401 6.94271 16.6635 13.3427 16.1114 16.2858C15.8768 17.5353 15.4213 17.9518 14.9796 17.9934C14.0135 18.0767 13.2819 17.3548 12.3572 16.744C10.8941 15.786 10.0798 15.1891 8.65813 14.2451C7.01565 13.1622 8.07843 12.5652 9.017 11.5934C9.26544 11.3436 13.5028 7.45637 13.5856 7.1093C13.5994 7.06766 13.5994 6.90106 13.5028 6.81776C13.4062 6.73447 13.2681 6.76223 13.1577 6.79C13.0059 6.81777 10.6871 8.37264 6.1737 11.4407C5.51118 11.8989 4.91768 12.121 4.37939 12.1071C3.78588 12.0932 2.65409 11.7739 1.79834 11.4963C0.763154 11.1631 -0.0649904 10.9826 0.00402163 10.3995C0.0454289 10.0941 0.459501 9.78868 1.23244 9.46938Z"
        fill="white" />
</svg>