<svg width="22" height="20" viewBox="0 0 22 20" fill="none" xmlns="http://www.w3.org/2000/svg">
<path d="M16.9509 9.11857C18.5097 9.11857 19.6832 8.46917 20.5485 7.3386L19.392 6.45627C19.1064 6.83274 18.7372 7.13772 18.3136 7.34718C17.89 7.55665 17.4235 7.66486 16.9509 7.6633C15.2592 7.6633 14.0333 6.28509 14.0333 4.59395C14.0333 2.90281 15.2392 1.44697 16.9991 1.44697C17.7815 1.44697 18.3344 1.63167 18.8168 1.93049V3.4175H20.272V1.24933L19.9932 1.02991C19.1932 0.400517 17.9715 0.0664062 16.9503 0.0664062C14.4539 0.0664062 12.4234 2.09696 12.4234 4.59337C12.4234 7.08744 14.4533 9.11857 16.9509 9.11857ZM19.9703 18.0478L19.9185 15.9637V10.8779H16.8833V12.3338H18.3856V15.7843C18.3856 17.2707 17.2503 18.3231 16.105 18.3231C14.9598 18.3231 14.3621 17.529 14.3621 16.0431V10.8773H11.5269V12.3332H12.8292V16.2955C12.8292 18.3119 13.9598 19.7013 15.9762 19.7013C17.135 19.7013 18.0174 19.0583 18.5438 18.0672H18.5673L18.775 19.453H21.1073V18.0495H19.972V18.0466L19.9703 18.0478ZM12.0881 0.279935H9.55872L7.35877 6.66802H7.32465L5.13646 0.279935H2.44123V1.73636H3.95708L6.56584 9.01739H7.95169V9.01562L10.6722 1.73696H12.0869V0.280527L12.0881 0.279935ZM0.0742188 19.4719H1.57301V17.9737H0.074807V19.4719H0.0742188ZM5.86233 12.5661H5.84586L5.75174 10.8779H3.07651V12.205H4.5V18.0484H3.07651V19.4525H9.68813V18.076H6.00703V14.5496C6.1735 13.2732 7.13054 12.1832 8.43639 12.1832H8.45992L8.43345 13.4879H9.88871V10.8538H8.73815C7.42053 10.8503 6.4429 11.5632 5.86174 12.5667L5.86233 12.5661Z" fill="#0A0620"/>
</svg>
