<svg width="20" height="20" viewBox="0 0 20 20" fill="none" xmlns="http://www.w3.org/2000/svg">
    <path fill-rule="evenodd" clip-rule="evenodd"
        d="M10.0376 17.339H10.0346C8.69798 17.3385 7.38694 16.9811 6.24328 16.3056L5.97122 16.145L3.15186 16.881L3.90439 14.1453L3.72727 13.8647C2.98164 12.6844 2.58775 11.3202 2.58835 9.91933C2.58999 5.83186 5.93164 2.50644 10.0407 2.50644C12.0302 2.50712 13.9006 3.27922 15.307 4.68062C16.7134 6.08193 17.4874 7.9445 17.4867 9.92542C17.485 14.0132 14.1434 17.339 10.0376 17.339ZM12.5935 11.0615C12.7988 11.1359 13.8997 11.6751 14.1236 11.7865C14.3476 11.8982 14.4968 11.954 14.5528 12.0468C14.6088 12.1398 14.6088 12.586 14.4222 13.1067C14.2356 13.6272 13.3409 14.1024 12.9106 14.1664C12.5248 14.2238 12.0367 14.2478 11.5002 14.0781C11.1749 13.9753 10.7577 13.8383 10.2235 13.6086C7.97718 12.6432 6.50999 10.3921 6.39806 10.2434L6.39616 10.2409C6.2773 10.083 5.48368 9.0289 5.48368 7.9379C5.48368 6.8409 6.06219 6.30171 6.26742 6.07858C6.47273 5.85546 6.7153 5.79967 6.86456 5.79967C7.01391 5.79967 7.16335 5.80113 7.29381 5.80757C7.43126 5.81443 7.61588 5.75565 7.79765 6.19014C7.98425 6.63639 8.43213 7.73339 8.48809 7.84504C8.54414 7.95652 8.58148 8.0867 8.5068 8.23543C8.43213 8.38415 8.39488 8.47717 8.28287 8.60727C8.17085 8.73737 8.04763 8.89785 7.94692 8.99774C7.83473 9.10887 7.71806 9.22945 7.8487 9.45257C7.97934 9.67578 8.42877 10.4056 9.09446 10.9965C9.94986 11.7558 10.6713 11.9912 10.8954 12.1027C11.1192 12.2143 11.2499 12.1956 11.3805 12.047C11.5111 11.8982 11.9404 11.3962 12.0896 11.1731C12.2389 10.95 12.3883 10.9872 12.5935 11.0615Z"
        fill="white" />
    <path fill-rule="evenodd" clip-rule="evenodd"
        d="M10.0376 1C12.435 1.00103 14.6852 1.92992 16.3773 3.61588C18.0694 5.30176 19.0009 7.54271 19 9.92585C18.9979 14.8438 14.977 18.8454 10.0376 18.8454H10.0339C8.66673 18.8449 7.32124 18.5336 6.10246 17.9404C5.87417 17.8293 5.61439 17.7954 5.36873 17.8595L2.17341 18.6937C1.65196 18.8298 1.17872 18.3503 1.32166 17.8307L2.16027 14.7822C2.23139 14.5237 2.19322 14.2486 2.06981 14.0106C1.41656 12.7503 1.07456 11.3502 1.07511 9.9189C1.07709 5.00106 5.09763 1 10.0376 1ZM10.0346 17.339H10.0376C14.1434 17.339 17.485 14.0132 17.4867 9.92542C17.4874 7.9445 16.7134 6.08193 15.307 4.68062C13.9006 3.27922 12.0302 2.50712 10.0407 2.50644C5.93164 2.50644 2.58999 5.83186 2.58835 9.91933C2.58775 11.3202 2.98164 12.6844 3.72727 13.8647L3.90439 14.1453L3.15186 16.881L5.97122 16.145L6.24328 16.3056C7.38694 16.9811 8.69798 17.3385 10.0346 17.339Z"
        fill="white" />
</svg>