<svg xmlns="http://www.w3.org/2000/svg" width="10" height="10" viewBox="0 0 10 10" fill="none">
    <path
        d="M5 9.99976C4.64286 9.99976 4.34982 9.88529 4.12088 9.65635C3.87363 9.42741 3.75 9.14811 3.75 8.81844C3.75 8.47961 3.86905 8.19573 4.10714 7.96679C4.3544 7.73785 4.65201 7.62338 5 7.62338C5.34799 7.62338 5.64103 7.73785 5.87912 7.96679C6.12637 8.19573 6.25 8.47961 6.25 8.81844C6.25 9.13895 6.13095 9.41825 5.89286 9.65635C5.6456 9.88529 5.34799 9.99976 5 9.99976ZM3.9011 0.0547006H6.12637L5.82418 6.81294H4.2033L3.9011 0.0547006Z"
        fill="white" />
</svg>