<svg width="121" height="49" viewBox="0 0 121 49" fill="none" xmlns="http://www.w3.org/2000/svg">
<path d="M74.5312 5.28038H84.379V10.5638C85.2122 8.53684 86.3286 7.09137 87.7283 6.22741C89.128 5.33022 90.8109 4.89824 92.7772 4.93147V11.0907V14.1027C92.3232 14.0751 91.8871 14.0622 91.469 14.064C89.3703 14.0727 87.7235 14.4512 86.5286 15.1993C85.0955 16.0633 84.379 17.4423 84.379 19.3363V31.3487H74.5312V5.28038Z" fill="white"/>
<path fill-rule="evenodd" clip-rule="evenodd" d="M103.513 31.9007L119.175 23.3518L119.363 23.2521C119.881 21.7908 120.14 20.1723 120.14 18.3966V17.9978C120.14 15.9044 119.757 14.0269 118.991 12.3655C118.257 10.704 117.241 9.3084 115.941 8.1786C114.642 7.01558 113.109 6.135 111.342 5.53688C109.576 4.90552 107.676 4.58984 105.644 4.58984C103.577 4.58984 101.644 4.90552 99.8449 5.53688C98.0786 6.16823 96.5456 7.08204 95.2459 8.27829C93.9462 9.44131 92.9131 10.8702 92.1466 12.5649C91.4135 14.2263 91.0469 16.1204 91.0469 18.2471V18.6458C91.0469 20.8057 91.4135 22.7164 92.1466 24.3779C92.9131 26.0061 93.9462 27.4017 95.2459 28.5647C96.579 29.6945 98.1286 30.5585 99.8949 31.1566C101.044 31.5243 102.25 31.7723 103.513 31.9007ZM105.644 24.7766C108.643 24.7766 110.143 22.6666 110.143 18.4464V18.0975C110.143 16.0373 109.776 14.4755 109.043 13.4122C108.31 12.3489 107.177 11.8172 105.644 11.8172C104.144 11.8172 102.994 12.3323 102.194 13.3624C101.395 14.3592 100.995 15.8878 100.995 17.948V18.3468C100.995 22.6333 102.544 24.7766 105.644 24.7766Z" fill="white"/>
<path d="M38.7072 5.28375H28.8594V31.3521H38.7072V16.9472C38.7072 15.3854 39.0404 14.239 39.7069 13.508C40.4068 12.7769 41.3732 12.4114 42.6063 12.4114C43.7727 12.4114 44.6058 12.7437 45.1057 13.4083C45.6389 14.0729 45.9056 15.0698 45.9056 16.3989V31.2925L55.7533 25.9173V14.2058C55.7533 12.5776 55.5367 11.1653 55.1035 9.96907C54.7036 8.77282 54.137 7.77594 53.4039 6.97844C52.6707 6.18094 51.7876 5.58281 50.7545 5.18406C49.7214 4.78531 48.5883 4.58594 47.3552 4.58594C45.1557 4.58594 43.3395 5.05115 41.9065 5.98157C40.5068 6.91198 39.4403 8.07501 38.7072 9.47064V5.28375Z" fill="white"/>
<path fill-rule="evenodd" clip-rule="evenodd" d="M11.9593 12.0275C12.4162 11.585 13.1319 11.3638 14.1064 11.3638C14.7729 11.3638 15.3061 11.4635 15.706 11.6628C16.106 11.829 16.4059 12.0948 16.6058 12.4603C16.8391 12.7926 16.9891 13.1914 17.0557 13.6566C17.1224 14.1218 17.1557 14.6202 17.1557 15.1519V15.6005H14.9062C10.3739 15.6005 6.89136 16.2651 4.45857 17.5942C2.05911 18.8902 0.859375 21.0667 0.859375 24.1238C0.859375 25.5194 1.09266 26.7157 1.55922 27.7126C2.05911 28.7094 2.70896 29.5236 3.50878 30.1549C4.34193 30.7863 5.29172 31.2515 6.35814 31.5505C7.4579 31.8496 8.59098 31.9991 9.75738 31.9991C10.8238 31.9991 11.7569 31.8828 12.5568 31.6502C13.3899 31.4508 14.1231 31.185 14.7563 30.8527C15.3895 30.5204 15.9227 30.1383 16.3559 29.7063C16.7891 29.2743 17.1391 28.8257 17.4057 28.3605V31.3512H26.9035V14.5039C26.9035 11.0813 25.8204 8.57251 23.6543 6.97751C21.4881 5.34927 18.5054 4.53516 14.7063 4.53516C12.84 4.53516 11.1237 4.73453 9.55743 5.13328C9.09076 5.25467 8.64263 5.39607 8.21302 5.55749L11.9593 12.0275ZM16.056 24.5724C15.3561 25.1373 14.4397 25.4197 13.3066 25.4197C12.4068 25.4197 11.7236 25.237 11.257 24.8715C10.7905 24.5059 10.5572 24.0075 10.5572 23.3761C10.5572 22.4457 10.8905 21.7978 11.557 21.4322C12.2235 21.0667 13.3899 20.8839 15.0562 20.8839H17.1557V22.2297C17.1557 23.1934 16.7891 23.9743 16.056 24.5724Z" fill="white"/>
<path d="M67.3666 31.9998C64.2673 31.9998 61.8845 31.2687 60.2182 29.8066C58.5519 28.3446 57.7188 25.9687 57.7188 22.679V0H67.5665V5.3333H72.5654V14.2633H67.5665V21.7319C67.5665 22.6291 67.7832 23.2771 68.2164 23.6758C68.683 24.0746 69.3162 24.274 70.116 24.274C70.9824 24.274 71.7989 24.1411 72.5654 23.8752V31.2521C71.9656 31.4183 71.2157 31.5844 70.3159 31.7506C69.4161 31.9167 68.433 31.9998 67.3666 31.9998Z" fill="white"/>
<path d="M4.592 48.9C3.81333 48.9 3.14133 48.8093 2.576 48.628C2.02133 48.436 1.55733 48.18 1.184 47.86C0.821333 47.5293 0.544 47.14 0.352 46.692C0.16 46.2333 0.0426667 45.732 0 45.188H2.048C2.08 45.476 2.13867 45.748 2.224 46.004C2.32 46.26 2.45867 46.484 2.64 46.676C2.832 46.868 3.08267 47.0227 3.392 47.14C3.712 47.2467 4.112 47.3 4.592 47.3C5.232 47.3 5.74933 47.14 6.144 46.82C6.54933 46.5 6.752 46.0733 6.752 45.54C6.752 45.2733 6.71467 45.0493 6.64 44.868C6.56533 44.676 6.43733 44.516 6.256 44.388C6.07467 44.2493 5.82933 44.132 5.52 44.036C5.21067 43.94 4.82667 43.8547 4.368 43.78C3.68533 43.684 3.088 43.5613 2.576 43.412C2.07467 43.252 1.65867 43.044 1.328 42.788C0.997333 42.5213 0.746667 42.196 0.576 41.812C0.416 41.428 0.336 40.9693 0.336 40.436C0.336 39.9667 0.432 39.5347 0.624 39.14C0.816 38.7347 1.08267 38.388 1.424 38.1C1.776 37.8013 2.19733 37.572 2.688 37.412C3.17867 37.2413 3.72267 37.156 4.32 37.156C5.55733 37.156 6.528 37.4333 7.232 37.988C7.94667 38.5427 8.36267 39.3693 8.48 40.468H6.528C6.42133 39.86 6.192 39.4227 5.84 39.156C5.488 38.8893 4.98133 38.756 4.32 38.756C3.66933 38.756 3.17867 38.8947 2.848 39.172C2.51733 39.4493 2.352 39.812 2.352 40.26C2.352 40.4947 2.37867 40.7027 2.432 40.884C2.496 41.0547 2.61333 41.2093 2.784 41.348C2.96533 41.476 3.20533 41.588 3.504 41.684C3.81333 41.78 4.21867 41.8653 4.72 41.94C5.392 42.036 5.97867 42.1587 6.48 42.308C6.992 42.4573 7.41867 42.6653 7.76 42.932C8.112 43.1987 8.37333 43.5293 8.544 43.924C8.71467 44.308 8.8 44.788 8.8 45.364C8.8 45.8653 8.69867 46.3293 8.496 46.756C8.29333 47.1827 8.00533 47.556 7.632 47.876C7.26933 48.196 6.82667 48.4467 6.304 48.628C5.792 48.8093 5.22133 48.9 4.592 48.9Z" fill="white"/>
<path d="M14.3468 47.396C14.3919 47.396 62.7301 47.395 62.774 47.3931C63.4355 47.3645 63.9563 47.1201 64.3364 46.66C64.7417 46.1587 64.9444 45.476 64.9444 44.612V44.5C64.9444 43.636 64.7417 42.9587 64.3364 42.468C63.9564 41.998 63.4357 41.7483 62.7745 41.7189C62.7304 41.717 14.3921 41.716 14.3468 41.716C14.3009 41.716 14.2557 41.717 14.2112 41.7189C13.5499 41.748 13.0245 41.9923 12.6348 42.452C12.2294 42.9427 12.0268 43.62 12.0268 44.484V44.612C12.0268 45.476 12.2294 46.1587 12.6348 46.66C13.0148 47.1201 13.5403 47.3645 14.2112 47.3931C14.2557 47.3951 14.3009 47.396 14.3468 47.396ZM14.3308 48.9C14.2907 48.9 14.2508 48.8996 14.2112 48.8987C13.6384 48.8865 13.1076 48.7855 12.6188 48.596C12.0961 48.3933 11.6427 48.1053 11.2587 47.732C10.8748 47.3587 10.5761 46.9107 10.3628 46.388C10.1494 45.8653 10.0428 45.284 10.0428 44.644V44.516C10.0428 43.8653 10.1494 43.2787 10.3628 42.756C10.5868 42.2227 10.8907 41.7693 11.2747 41.396C11.6587 41.012 12.1121 40.7187 12.6348 40.516C13.119 40.3183 13.6445 40.2122 14.2112 40.1977C14.2561 40.1966 14.3013 40.196 14.3468 40.196C14.3926 40.196 62.7318 40.1966 62.7771 40.1977C63.3334 40.2119 63.8531 40.3126 64.3364 40.5C64.859 40.7027 65.3124 40.996 65.6964 41.38C66.0804 41.7533 66.379 42.2013 66.5924 42.724C66.8164 43.2467 66.9284 43.828 66.9284 44.468V44.596C66.9284 45.2467 66.8164 45.8387 66.5924 46.372C66.379 46.8947 66.0804 47.348 65.6964 47.732C65.3124 48.1053 64.859 48.3933 64.3364 48.596C63.8561 48.7822 63.3353 48.8829 62.774 48.898C62.7245 48.8993 14.3809 48.9 14.3308 48.9Z" fill="white"/>
<path d="M68.6281 36.5H70.5641V48.74H68.6281V36.5Z" fill="white"/>
<path d="M75.6264 48.9C75.2104 48.9 74.8264 48.8413 74.4744 48.724C74.1224 48.596 73.8184 48.404 73.5624 48.148C73.3064 47.892 73.1037 47.5667 72.9544 47.172C72.8157 46.7667 72.7464 46.2867 72.7464 45.732V40.372H74.6824V45.508C74.6824 46.148 74.8157 46.6173 75.0824 46.916C75.349 47.204 75.765 47.348 76.3304 47.348C76.5864 47.348 76.8317 47.3053 77.0664 47.22C77.3117 47.1347 77.5197 47.012 77.6904 46.852C77.8717 46.6813 78.0157 46.4733 78.1224 46.228C78.229 45.972 78.2824 45.6787 78.2824 45.348V40.372H80.2184V48.74H78.2824V47.428C78.069 47.8333 77.7437 48.18 77.3064 48.468C76.869 48.756 76.309 48.9 75.6264 48.9Z" fill="white"/>
<path d="M85.2644 48.884C84.4324 48.884 83.803 48.6707 83.3764 48.244C82.9497 47.8173 82.7364 47.204 82.7364 46.404V41.828H81.6164V40.372H82.7364V38.532H84.6724V40.372H86.5124V41.828H84.6724V46.228C84.6724 46.6013 84.7524 46.8733 84.9124 47.044C85.083 47.2147 85.323 47.3 85.6324 47.3C86.0057 47.3 86.3204 47.2467 86.5764 47.14V48.676C86.427 48.7293 86.2457 48.7773 86.0324 48.82C85.819 48.8627 85.563 48.884 85.2644 48.884Z" fill="white"/>
<path d="M88.2731 40.372H90.2091V48.74H88.2731V40.372ZM89.2171 38.996C88.8971 38.996 88.6251 38.8893 88.4011 38.676C88.1771 38.4627 88.0651 38.2013 88.0651 37.892C88.0651 37.572 88.1771 37.3053 88.4011 37.092C88.6251 36.8787 88.8971 36.772 89.2171 36.772C89.5371 36.772 89.8091 36.8787 90.0331 37.092C90.2571 37.3053 90.3691 37.572 90.3691 37.892C90.3691 38.2013 90.2571 38.4627 90.0331 38.676C89.8091 38.8893 89.5371 38.996 89.2171 38.996Z" fill="white"/>
<path d="M96.2154 47.396C96.9407 47.396 97.506 47.1507 97.9114 46.66C98.3167 46.1587 98.5194 45.476 98.5194 44.612V44.5C98.5194 43.636 98.3167 42.9587 97.9114 42.468C97.506 41.9667 96.9407 41.716 96.2154 41.716C95.49 41.716 94.9194 41.9613 94.5034 42.452C94.098 42.9427 93.8954 43.62 93.8954 44.484V44.612C93.8954 45.476 94.098 46.1587 94.5034 46.66C94.9087 47.1507 95.4794 47.396 96.2154 47.396ZM96.1994 48.9C95.5807 48.9 95.01 48.7987 94.4874 48.596C93.9647 48.3933 93.5114 48.1053 93.1274 47.732C92.7434 47.3587 92.4447 46.9107 92.2314 46.388C92.018 45.8653 91.9114 45.284 91.9114 44.644V44.516C91.9114 43.8653 92.018 43.2787 92.2314 42.756C92.4554 42.2227 92.7594 41.7693 93.1434 41.396C93.5274 41.012 93.9807 40.7187 94.5034 40.516C95.026 40.3027 95.5967 40.196 96.2154 40.196C96.8234 40.196 97.3887 40.2973 97.9114 40.5C98.434 40.7027 98.8874 40.996 99.2714 41.38C99.6554 41.7533 99.954 42.2013 100.167 42.724C100.391 43.2467 100.503 43.828 100.503 44.468V44.596C100.503 45.2467 100.391 45.8387 100.167 46.372C99.954 46.8947 99.6554 47.348 99.2714 47.732C98.8874 48.1053 98.434 48.3933 97.9114 48.596C97.3887 48.7987 96.818 48.9 96.1994 48.9Z" fill="white"/>
<path d="M102.155 40.372H104.091V41.7C104.294 41.2947 104.619 40.9427 105.067 40.644C105.526 40.3453 106.102 40.196 106.795 40.196C107.211 40.196 107.595 40.26 107.947 40.388C108.299 40.516 108.603 40.7133 108.859 40.98C109.115 41.236 109.312 41.572 109.451 41.988C109.59 42.404 109.659 42.9 109.659 43.476V48.74H107.723V43.652C107.723 43.012 107.59 42.548 107.323 42.26C107.056 41.9613 106.635 41.812 106.059 41.812C105.515 41.812 105.051 41.9827 104.667 42.324C104.283 42.6547 104.091 43.1507 104.091 43.812V48.74H102.155V40.372Z" fill="white"/>
<path d="M114.656 48.9C113.568 48.9 112.72 48.6653 112.112 48.196C111.515 47.716 111.195 47.028 111.152 46.132H112.976C113.029 46.5587 113.173 46.8893 113.408 47.124C113.653 47.3587 114.064 47.476 114.64 47.476C115.163 47.476 115.541 47.3853 115.776 47.204C116.021 47.0227 116.144 46.756 116.144 46.404C116.144 46.0627 116 45.812 115.712 45.652C115.424 45.492 114.971 45.3587 114.352 45.252C113.797 45.1667 113.328 45.06 112.944 44.932C112.56 44.804 112.245 44.6387 112 44.436C111.765 44.2333 111.595 43.9933 111.488 43.716C111.381 43.4387 111.328 43.1027 111.328 42.708C111.328 42.292 111.419 41.9293 111.6 41.62C111.781 41.3 112.016 41.0387 112.304 40.836C112.603 40.6227 112.939 40.4627 113.312 40.356C113.685 40.2493 114.069 40.196 114.464 40.196C114.891 40.196 115.291 40.2387 115.664 40.324C116.048 40.4093 116.384 40.5533 116.672 40.756C116.96 40.948 117.195 41.2093 117.376 41.54C117.568 41.86 117.691 42.2547 117.744 42.724H115.952C115.867 42.34 115.707 42.0573 115.472 41.876C115.248 41.6947 114.912 41.604 114.464 41.604C114.048 41.604 113.723 41.6947 113.488 41.876C113.253 42.0573 113.136 42.2973 113.136 42.596C113.136 42.7453 113.163 42.8787 113.216 42.996C113.269 43.1027 113.36 43.1987 113.488 43.284C113.627 43.3587 113.808 43.428 114.032 43.492C114.256 43.556 114.533 43.6147 114.864 43.668C115.355 43.7427 115.792 43.8387 116.176 43.956C116.571 44.0627 116.901 44.212 117.168 44.404C117.435 44.5853 117.637 44.8253 117.776 45.124C117.925 45.412 118 45.78 118 46.228C118 47.0813 117.712 47.7427 117.136 48.212C116.56 48.6707 115.733 48.9 114.656 48.9Z" fill="white"/>
</svg>
