<svg width="20" height="20" viewBox="0 0 20 20" fill="none" xmlns="http://www.w3.org/2000/svg">
    <path
        d="M12.0269 16.2782C12.7471 17.6369 13.6904 18.4167 14.6154 18.4167C15.5404 18.4167 16.4837 17.6369 17.2038 16.2782C17.6694 15.3695 18.0013 14.3947 18.1885 13.3856C17.7198 13.6036 17.2056 13.6972 16.6927 13.6579C16.1799 13.6186 15.6847 13.4476 15.2527 13.1606C14.8206 12.8736 14.4653 12.4797 14.2192 12.0149C13.9732 11.5501 13.8443 11.0293 13.8443 10.5C13.8443 9.97072 13.9732 9.44988 14.2192 8.9851C14.4653 8.52031 14.8206 8.1264 15.2527 7.83938C15.6847 7.55236 16.1799 7.38138 16.6927 7.34208C17.2056 7.30277 17.7198 7.39639 18.1885 7.61437C18.0013 6.60532 17.6694 5.6305 17.2038 4.72182C16.4837 3.36313 15.5404 2.58333 14.6154 2.58333C13.6904 2.58333 12.7471 3.36313 12.0269 4.72182C11.2163 6.25172 10.7692 8.30411 10.7692 10.5C10.7692 12.6959 11.2163 14.7483 12.0269 16.2782Z"
        fill="white" />
    <path
        d="M2.79616 16.2782C3.51635 17.6369 4.45962 18.4167 5.38462 18.4167C6.30962 18.4167 7.25288 17.6369 7.97308 16.2782C8.43867 15.3695 8.7705 14.3947 8.95769 13.3856C8.48906 13.6036 7.9748 13.6972 7.46194 13.6579C6.94908 13.6186 6.45398 13.4476 6.02188 13.1606C5.58979 12.8736 5.23449 12.4797 4.98846 12.0149C4.74243 11.5501 4.61353 11.0293 4.61353 10.5C4.61353 9.97072 4.74243 9.44988 4.98846 8.9851C5.23449 8.52031 5.58979 8.1264 6.02188 7.83938C6.45398 7.55236 6.94908 7.38138 7.46194 7.34208C7.9748 7.30277 8.48906 7.39639 8.95769 7.61437C8.7705 6.60532 8.43867 5.6305 7.97308 4.72182C7.25288 3.36313 6.30962 2.58333 5.38462 2.58333C4.45962 2.58333 3.51635 3.36313 2.79616 4.72182C1.98558 6.25172 1.53846 8.30411 1.53846 10.5C1.53846 12.6959 1.98558 14.7483 2.79616 16.2782Z"
        fill="white" />
</svg>